<svg width="70" height="78" viewBox="0 0 70 78" fill="none" xmlns="http://www.w3.org/2000/svg">
<rect x="0.5" y="21" width="69" height="56" rx="28" fill="#C4C4C4" stroke="black"/>
<rect y="11.5" width="70" height="32" rx="5" fill="white"/>
<path d="M69.5 39C69.5 40.6752 68.6217 42.3267 66.9126 43.8854C65.2033 45.4442 62.702 46.8709 59.5688 48.0794C53.3057 50.4952 44.6195 52 35 52C25.3805 52 16.6943 50.4952 10.4312 48.0794C7.29802 46.8709 4.79674 45.4442 3.08738 43.8854C1.37825 42.3267 0.5 40.6752 0.5 39C0.5 37.3248 1.37825 35.6733 3.08738 34.1146C4.79674 32.5558 7.29802 31.1291 10.4312 29.9206C16.6943 27.5048 25.3805 26 35 26C44.6195 26 53.3057 27.5048 59.5688 29.9206C62.702 31.1291 65.2033 32.5558 66.9126 34.1146C68.6217 35.6733 69.5 37.3248 69.5 39Z" fill="#C4C4C4" stroke="black"/>
<ellipse cx="35" cy="39" rx="30" ry="9.5" fill="#FC4E4E"/>
<path d="M21 38C18.8333 35.3333 15.8 27.9 21 19.5C26.2 11.1 23.1666 4.33333 21 2" stroke="black"/>
<path d="M34.8712 37.5C32.7045 34.8333 29.6712 27.4 34.8712 19C40.0712 10.6 37.0379 3.83333 34.8712 1.5" stroke="black"/>
<path d="M48.7424 37C46.5757 34.3333 43.5424 26.9 48.7424 18.5C53.9424 10.1 50.9091 3.33333 48.7424 1" stroke="black"/>
<path d="M16.6367 62.7715C16.6279 63.041 16.4946 63.1758 16.2368 63.1758C16.0229 63.1758 15.8677 63.0498 15.771 62.7979L15.0986 61.0137L14.3164 58.9966C14.2871 58.9204 14.2725 58.853 14.2725 58.7944C14.2725 58.6743 14.3179 58.5718 14.4087 58.4868C14.4995 58.4019 14.605 58.3594 14.7251 58.3594C14.9009 58.3594 15.0269 58.4487 15.103 58.6274L16.2192 61.6992C16.439 61.2305 16.7158 60.5508 17.0498 59.6602C17.1289 59.4258 17.2534 59.0947 17.4233 58.667C17.5142 58.4795 17.6431 58.3857 17.8101 58.3857C17.9302 58.3857 18.0356 58.4282 18.1265 58.5132C18.2173 58.5981 18.2627 58.6992 18.2627 58.8164C18.2627 58.9277 18.021 59.5547 17.5376 60.6973L16.6367 62.7715ZM21.04 63.2021C20.3779 63.2021 19.8418 63.0366 19.4316 62.7056C18.9834 62.3394 18.7593 61.8267 18.7593 61.1675C18.7593 60.4058 18.9438 59.7671 19.313 59.2515C19.7144 58.689 20.2505 58.4077 20.9214 58.4077C21.4077 58.4077 21.8047 58.4897 22.1123 58.6538C22.4902 58.856 22.6792 59.1665 22.6792 59.5854C22.6792 59.8784 22.5137 60.145 22.1826 60.3853C22.0361 60.4907 21.7256 60.6548 21.251 60.8774L19.5723 61.6729C19.7363 61.916 19.9399 62.0991 20.1831 62.2222C20.4292 62.3452 20.7148 62.4067 21.04 62.4067C21.2422 62.4067 21.4795 62.3687 21.752 62.2925C22.0977 62.1958 22.3203 62.0698 22.4199 61.9146C22.5195 61.7563 22.6265 61.6772 22.7407 61.6772C22.8433 61.6772 22.9341 61.7168 23.0132 61.7959C23.0952 61.8721 23.1362 61.9614 23.1362 62.064C23.1362 62.3892 22.874 62.6689 22.3496 62.9033C21.9014 63.1025 21.4648 63.2021 21.04 63.2021ZM20.9214 59.1987C20.564 59.1987 20.2666 59.3379 20.0293 59.6162C19.792 59.8916 19.6147 60.3076 19.4976 60.8643L20.8467 60.2227C21.377 59.9648 21.7549 59.7407 21.9805 59.5503C21.7285 59.3159 21.3755 59.1987 20.9214 59.1987ZM27.3374 59.7524C27.3169 60.1187 27.1704 60.3018 26.8979 60.3018C26.646 60.3018 26.52 60.1567 26.52 59.8667C26.52 59.811 26.5156 59.7085 26.5068 59.5591L26.4937 59.1899C26.0308 59.2456 25.6602 59.376 25.3818 59.5811C25.1211 59.7715 24.9043 60.0586 24.7314 60.4424L24.7402 62.8506C24.7402 63.1465 24.5952 63.2944 24.3052 63.2944C24.0474 63.2944 23.9185 63.1465 23.9185 62.8506V59.7656C23.9185 59.6689 23.9214 59.5239 23.9272 59.3306C23.936 59.1372 23.9404 58.9922 23.9404 58.8955C23.9404 58.5996 24.0693 58.4517 24.3271 58.4517C24.6143 58.4517 24.7593 58.6948 24.7622 59.1812C25.3247 58.6392 25.9487 58.3682 26.6343 58.3682C26.8716 58.3682 27.0488 58.4575 27.166 58.6362C27.2832 58.8149 27.3418 59.0845 27.3418 59.4448C27.3418 59.5972 27.3403 59.6997 27.3374 59.7524ZM29.082 57.4365C28.9414 57.4365 28.8198 57.3867 28.7173 57.2871C28.6147 57.1875 28.5635 57.0674 28.5635 56.9268C28.5635 56.7861 28.6147 56.666 28.7173 56.5664C28.8198 56.4668 28.9414 56.417 29.082 56.417C29.2227 56.417 29.3428 56.4668 29.4424 56.5664C29.5449 56.666 29.5962 56.7861 29.5962 56.9268C29.5962 57.0674 29.5449 57.1875 29.4424 57.2871C29.3428 57.3867 29.2227 57.4365 29.082 57.4365ZM29.2798 61.0049C29.2798 61.1807 29.2842 61.4443 29.293 61.7959C29.3047 62.1445 29.3105 62.4067 29.3105 62.5825C29.3105 62.7114 29.271 62.8169 29.1919 62.8989C29.1128 62.981 29.0088 63.022 28.8799 63.022C28.7539 63.022 28.6499 62.981 28.5679 62.8989C28.4888 62.8169 28.4492 62.7114 28.4492 62.5825C28.4492 62.4067 28.4434 62.1445 28.4316 61.7959C28.4229 61.4443 28.4185 61.1807 28.4185 61.0049C28.4185 60.7295 28.4331 60.3867 28.4624 59.9766C28.4917 59.5635 28.5063 59.2192 28.5063 58.9438C28.5063 58.812 28.5459 58.7051 28.625 58.623C28.707 58.541 28.811 58.5 28.937 58.5C29.063 58.5 29.1655 58.541 29.2446 58.623C29.3267 58.7051 29.3677 58.812 29.3677 58.9438C29.3677 59.2192 29.353 59.5635 29.3237 59.9766C29.2944 60.3867 29.2798 60.7295 29.2798 61.0049ZM39.0356 63.3647C38.7954 63.3647 38.6548 63.2373 38.6138 62.9824C38.561 62.6602 38.5083 62.2061 38.4556 61.6201L38.3062 60.2578C38.2769 60.0557 38.2271 59.8579 38.1567 59.6646C38.0571 59.4009 37.9487 59.269 37.8315 59.269C37.7231 59.269 37.521 59.3613 37.2251 59.5459C36.9438 59.7158 36.7593 59.8521 36.6714 59.9546C36.6685 60.23 36.6758 60.5054 36.6934 60.7808L36.8252 61.9541C36.8809 62.417 36.9087 62.7993 36.9087 63.1011C36.9087 63.23 36.8677 63.3354 36.7856 63.4175C36.7065 63.5024 36.604 63.5449 36.478 63.5449C36.3521 63.5449 36.248 63.5024 36.166 63.4175C36.0869 63.3354 36.0474 63.23 36.0474 63.1011C36.0474 62.7466 36.0107 62.2236 35.9375 61.5322C35.8672 60.8379 35.832 60.3135 35.832 59.959C35.832 59.6484 35.7881 59.4067 35.7002 59.2339C35.4951 59.3276 35.2871 59.48 35.0762 59.6909L34.5576 60.271C34.5107 60.3413 34.436 60.4336 34.3335 60.5479C34.3335 60.7236 34.3174 60.9829 34.2852 61.3257C34.2529 61.6685 34.2368 61.9219 34.2368 62.0859C34.2368 62.1738 34.25 62.2969 34.2764 62.4551C34.3057 62.6133 34.3203 62.7275 34.3203 62.7979C34.3203 62.918 34.2749 63.019 34.1841 63.1011C34.0962 63.1831 33.9922 63.2241 33.8721 63.2241C33.541 63.2241 33.3755 62.8477 33.3755 62.0947C33.3755 61.9189 33.3916 61.6567 33.4238 61.3081C33.4561 60.9595 33.4722 60.6973 33.4722 60.5215C33.4722 60.3662 33.4575 60.1333 33.4282 59.8228C33.4019 59.5122 33.3887 59.2778 33.3887 59.1196C33.3887 58.4546 33.5381 58.1221 33.8369 58.1221C33.9512 58.1221 34.0552 58.1719 34.1489 58.2715C34.2456 58.3711 34.2939 58.4795 34.2939 58.5967C34.2939 58.6523 34.2866 58.7388 34.272 58.856C34.2573 58.9731 34.25 59.0625 34.25 59.124L34.2588 59.5854C34.4111 59.272 34.6353 58.9893 34.9312 58.7373C35.2271 58.4824 35.479 58.355 35.687 58.355C36.147 58.355 36.4634 58.5835 36.6362 59.0405C36.7974 58.8267 36.9893 58.667 37.2119 58.5615C37.4346 58.4531 37.6895 58.3989 37.9766 58.3989C38.4658 58.3989 38.7998 58.6626 38.9785 59.1899C39.0137 59.2954 39.0737 59.707 39.1587 60.4248C39.2407 60.9287 39.3462 61.7681 39.4751 62.9429C39.4839 63.0601 39.4443 63.1597 39.3564 63.2417C39.2686 63.3237 39.1616 63.3647 39.0356 63.3647ZM43.8828 63.29C43.8271 63.29 43.7261 63.2256 43.5796 63.0967C43.4478 62.9766 43.3496 62.8696 43.2852 62.7759C43.0039 62.9282 42.7563 63.0425 42.5425 63.1187C42.3286 63.1978 42.1499 63.2373 42.0063 63.2373C41.3208 63.2373 40.8213 63.0439 40.5078 62.6572C40.2119 62.2939 40.064 61.7373 40.064 60.9873C40.064 60.2783 40.3071 59.6719 40.7935 59.168C41.2827 58.6641 41.8657 58.4121 42.5425 58.4121C42.7974 58.4121 43.083 58.478 43.3994 58.6099C43.7979 58.7739 43.9971 58.9717 43.9971 59.2031C43.9971 59.2822 43.9678 59.3525 43.9092 59.4141C43.8799 59.5254 43.8564 59.7085 43.8389 59.9634C43.8242 60.2183 43.8154 60.5449 43.8125 60.9434C43.8096 61.3066 43.8345 61.5938 43.8872 61.8047C43.9165 61.9336 44.0088 62.1914 44.1641 62.5781C44.1846 62.6309 44.2183 62.7085 44.2651 62.811L44.2915 62.8857C44.2915 63.0029 44.2505 63.0996 44.1685 63.1758C44.0864 63.252 43.9912 63.29 43.8828 63.29ZM42.9688 60.2358C42.9688 60.1099 42.9761 59.9736 42.9907 59.8271C43.0083 59.6777 43.0332 59.5195 43.0654 59.3525C42.957 59.2969 42.8633 59.2559 42.7842 59.2295C42.708 59.2031 42.6465 59.1899 42.5996 59.1899C42.1455 59.1899 41.7529 59.376 41.4219 59.748C41.0938 60.1172 40.9297 60.5435 40.9297 61.0269C40.9297 61.5073 41.0146 61.8677 41.1846 62.1079C41.3545 62.3481 41.6094 62.4683 41.9492 62.4683C42.2305 62.4683 42.4692 62.417 42.6655 62.3145C42.771 62.2588 42.9189 62.1475 43.1094 61.9805C43.0156 61.2041 42.9688 60.6226 42.9688 60.2358ZM48.6729 61.106L48.5718 62.5825C48.5542 63.1685 48.4941 63.6475 48.3916 64.0195C48.2598 64.4941 48.0488 64.8442 47.7588 65.0698C47.4072 65.3423 46.8989 65.4785 46.2339 65.4785C45.8442 65.4785 45.5176 65.4521 45.2539 65.3994C44.8848 65.3262 44.7002 65.1738 44.7002 64.9424C44.7002 64.6816 44.8276 64.5513 45.0825 64.5513C45.188 64.5513 45.3638 64.5762 45.6099 64.626C45.856 64.6787 46.1284 64.7021 46.4272 64.6963C46.9897 64.6875 47.3779 64.415 47.5918 63.8789C47.7324 63.5215 47.8071 62.9722 47.8159 62.231C47.6577 62.5239 47.4688 62.7437 47.249 62.8901C47.0322 63.0366 46.7832 63.1099 46.502 63.1099C45.9717 63.1099 45.5396 62.9297 45.2056 62.5693C44.8745 62.2061 44.709 61.7358 44.709 61.1587C44.709 60.3677 44.936 59.7305 45.3901 59.2471C45.8589 58.749 46.4976 58.5 47.3062 58.5C47.5786 58.5 47.8071 58.5352 47.9917 58.6055C48.1763 58.6758 48.3169 58.7812 48.4136 58.9219C48.7271 58.9307 48.8838 59.105 48.8838 59.4448C48.8838 59.6528 48.853 59.9312 48.7915 60.2798C48.7241 60.6841 48.6846 60.9595 48.6729 61.106ZM47.2622 59.2031C46.7056 59.2031 46.2749 59.395 45.9702 59.7788C45.6978 60.1245 45.5615 60.564 45.5615 61.0972C45.5615 61.522 45.6421 61.8413 45.8032 62.0552C45.9644 62.269 46.2061 62.376 46.5283 62.376C46.8242 62.376 47.1113 62.209 47.3896 61.875C47.6416 61.5674 47.7852 61.2627 47.8203 60.9609C47.8818 60.6445 47.9478 60.1479 48.0181 59.4712C47.9009 59.3804 47.7793 59.313 47.6533 59.269C47.5273 59.2251 47.397 59.2031 47.2622 59.2031ZM50.6768 57.4365C50.5361 57.4365 50.4146 57.3867 50.312 57.2871C50.2095 57.1875 50.1582 57.0674 50.1582 56.9268C50.1582 56.7861 50.2095 56.666 50.312 56.5664C50.4146 56.4668 50.5361 56.417 50.6768 56.417C50.8174 56.417 50.9375 56.4668 51.0371 56.5664C51.1396 56.666 51.1909 56.7861 51.1909 56.9268C51.1909 57.0674 51.1396 57.1875 51.0371 57.2871C50.9375 57.3867 50.8174 57.4365 50.6768 57.4365ZM50.8745 61.0049C50.8745 61.1807 50.8789 61.4443 50.8877 61.7959C50.8994 62.1445 50.9053 62.4067 50.9053 62.5825C50.9053 62.7114 50.8657 62.8169 50.7866 62.8989C50.7075 62.981 50.6035 63.022 50.4746 63.022C50.3486 63.022 50.2446 62.981 50.1626 62.8989C50.0835 62.8169 50.0439 62.7114 50.0439 62.5825C50.0439 62.4067 50.0381 62.1445 50.0264 61.7959C50.0176 61.4443 50.0132 61.1807 50.0132 61.0049C50.0132 60.7295 50.0278 60.3867 50.0571 59.9766C50.0864 59.5635 50.1011 59.2192 50.1011 58.9438C50.1011 58.812 50.1406 58.7051 50.2197 58.623C50.3018 58.541 50.4058 58.5 50.5317 58.5C50.6577 58.5 50.7603 58.541 50.8394 58.623C50.9214 58.7051 50.9624 58.812 50.9624 58.9438C50.9624 59.2192 50.9478 59.5635 50.9185 59.9766C50.8892 60.3867 50.8745 60.7295 50.8745 61.0049ZM54.3462 63.2769C53.7456 63.2769 53.2446 63.0952 52.8433 62.7319C52.4214 62.3511 52.2104 61.8486 52.2104 61.2246C52.2104 60.6299 52.4082 60.0161 52.8037 59.3833C53.2432 58.6802 53.7383 58.3286 54.2891 58.3286C54.5762 58.3286 54.897 58.396 55.2515 58.5308C55.6997 58.7036 55.9238 58.9146 55.9238 59.1636C55.9238 59.2749 55.8872 59.3745 55.814 59.4624C55.7407 59.5474 55.6499 59.5898 55.5415 59.5898C55.4565 59.5898 55.3818 59.5649 55.3174 59.5151C55.2559 59.4624 55.1958 59.4111 55.1372 59.3613C54.9644 59.2236 54.6816 59.1548 54.2891 59.1548C53.9902 59.1548 53.6943 59.4214 53.4014 59.9546C53.1348 60.4438 53.0015 60.8672 53.0015 61.2246C53.0015 61.6113 53.1333 61.916 53.397 62.1387C53.6431 62.3467 53.9595 62.4507 54.3462 62.4507C54.522 62.4507 54.7095 62.4038 54.9087 62.3101L55.4185 62.0376C55.5063 61.9907 55.5693 61.9673 55.6074 61.9673C55.7158 61.9673 55.8096 62.0112 55.8887 62.0991C55.9678 62.1841 56.0073 62.2822 56.0073 62.3936C56.0073 62.6074 55.7817 62.814 55.3306 63.0132C54.9351 63.189 54.6069 63.2769 54.3462 63.2769Z" fill="black"/>
</svg>
